<svg xmlns="http://www.w3.org/2000/svg" xmlns:xlink="http://www.w3.org/1999/xlink" width="1500" height="1000" viewBox="0 0 150 150"><defs><radialGradient xlink:href="#a" id="b" cx="99.309" cy="77.339" r="9.97" fx="99.309" fy="77.339" gradientTransform="matrix(6.20647 0 0 6.20633 -510.957 -362.369)" gradientUnits="userSpaceOnUse"/><linearGradient id="a"><stop offset=".152" style="stop-color:#737373;stop-opacity:1"/><stop offset="1" style="stop-color:#f3f3f3;stop-opacity:0"/></linearGradient></defs><g transform="matrix(1.39202 0 0 1.3634 -40.56 -73.414)"><path fill="none" d="m95.55 154.632-1.436 2.466 14.55-1.912-18.77-4.594-8.708 3.864 2.427-.339 8.04.556 11.294.204-8.725 8.32-9.564-5.19 4.463-.064 8.452-6.232-10.682 11.988-12.79-10.727 26.115 5.184-5.02-3.964-3.572.157-17.362-3.035-2.312 7.49 18.569-1.921.952 3.568-4.135-6.125-25.758.807 13.704-4.09-11.559.8 9.581 2.257 17.382-1.842-6.676 3.832-20.356-7.881 3.439.146 9.875-1.687-4.973-.411-12.496 3.956 33.72 2.41-13.74-8.98-5.45-.565-4.66.166 27.583-.216-20.644 4.847 22.44 1.853-3.001-7.053 2.996 3.366-3.04-7.533-3.016 2.652-23.072-5.28 30.214 5.718-22.022-.007-7.057.218 3.947-.448 7.753 1.892 21.644 1.271-33.496 4.255 11.578-9.607 6.741 3.602-2.446 1.838 6.519-.634 13.729-2.256-8.851 7.82 1.195-5.319-10.823 2.401 22.897-4.869-32.854 5.89 16.022 3.824 2.673 1.046 8.694-2.863-22.203-3.206 11.365 1.773-14.142-1.171 20.654 3.496-14.345.321z" style="fill:#b3b3b3;fill-opacity:0;stroke-width:.0822442"/><path id="c" d="m174.348 123.982-34.125 5.088 16.118 7.957-27.513-10.284 44.173 16.602-33.962-9.307 15.629 19.35-13.908-12.591 19.195 28.908-36.72-29.336 22.666 35.117-29.813-33.998 3.14 30.934-16.682-29.279-2.439 33.138 2.158-31.852 15.135 37.73-26.87-30.58 8.578 23.793.101-32.383L71.98 174.52l19.691-25.391-27.37 19.379 16.435-30.47-21.9 25.125L91 134.598l-27.039 22.377L75.024 137.6l-36.43 4.507 44.633-15.044-22.883 6.509 27.689-9.244-58.896-3.273 56.286-.735-34.66-8.207 28.211-3.379-45.654-6.345 56.432 4.947-34.255-10.674 31.45 5.789-27.17-22.75 13.26 21.536-6.247-22.751 33.463 19.354-30.95-34.816 22.579 22.965.346-20.146 13.788 22.46-11.844-27.86-4.242 28.59 25.625-32.173-10.528 29.664 6.816-32.652 14.326 31.294.408-27.56-11.446 30.38 31.681-21.458-23.841 25.933 13.416-19.717.789 23.171 13.425-18.405-35.21 22.388L161.5 87.689l-38.371 11.173 35.522-5.002-17.261 17.33 32.554-3.663-44.942 8.169 37.212 2.674-22.545 2.739z" style="fill:url(#b);stroke-width:1.64213"/><use xlink:href="#c" transform="rotate(37.769 101.681 117.952)"/><use xlink:href="#c" transform="rotate(7.267 52.703 155.034) scale(.95)"/><use xlink:href="#c" transform="rotate(65.514 87.43 119.956) scale(.9)"/><use xlink:href="#c" transform="rotate(35.358 66.3 133.032) scale(.85)"/><use xlink:href="#c" transform="rotate(66.845 73.64 121.564) scale(.8)"/><use xlink:href="#c" transform="rotate(122.361 80.86 110.2) scale(.75)"/><use xlink:href="#c" transform="rotate(155.24 82.546 103.607) scale(.7)"/><use xlink:href="#c" transform="rotate(110.025 69.44 109.764) scale(.65)"/><use xlink:href="#c" transform="rotate(170.296 79.343 96.088) scale(.6)"/><use xlink:href="#c" transform="rotate(156.113 73.19 96.252) scale(.55)"/><use xlink:href="#c" transform="rotate(-144.953 85.572 80.437) scale(.5)"/><use xlink:href="#c" transform="rotate(-164.531 78.124 81.717) scale(.45)"/><use xlink:href="#c" transform="rotate(-152.68 79.777 75.153) scale(.4)"/><use xlink:href="#c" transform="rotate(-130.986 86.11 64.553) scale(.35)"/><use xlink:href="#c" transform="rotate(-99.887 100.803 46.747) scale(.3)"/><use xlink:href="#c" transform="rotate(-71.571 124.913 20.822) scale(.25)"/><use xlink:href="#c" transform="rotate(-37.402 200.392 -49.385) scale(.2)"/><use xlink:href="#c" transform="rotate(-63.222 139.916 -2.392) scale(.15)"/><use xlink:href="#c" transform="rotate(-18.655 379.087 -213.712) scale(.1)"/><use xlink:href="#c" transform="rotate(4.625 -1334.146 1258.056) scale(.05)"/></g></svg>