<svg class="logo" width="108" height="57" viewBox="0 0 108 57" fill="none" xmlns="http://www.w3.org/2000/svg">
          <path fill-rule="evenodd" clip-rule="evenodd" d="M13.816 19.32C12.408 21.9653 11.704 25.08 11.704 28.664C11.704 32.2053 12.408 35.32 13.816 38.008C15.224 40.6533 17.1653 42.7013 19.64 44.152C22.1147 45.6027 24.9093 46.328 28.024 46.328C31.2667 46.328 34.04 45.624 36.344 44.216C38.6907 42.7653 40.4827 40.696 41.72 38.008H48.696C47.9759 39.8545 47.072 41.5211 45.9843 43.008C44.5586 44.9569 42.8172 46.5969 40.76 47.928C37.1333 50.232 32.888 51.384 28.024 51.384C23.8853 51.384 20.1093 50.424 16.696 48.504C13.3253 46.5413 10.6587 43.832 8.696 40.376C6.73333 36.92 5.752 33.016 5.752 28.664C5.752 24.312 6.73333 20.408 8.696 16.952C10.6587 13.4533 13.3253 10.7227 16.696 8.75999C20.1093 6.79733 23.8853 5.81599 28.024 5.81599C32.888 5.81599 37.1333 6.98933 40.76 9.33599C42.8323 10.6769 44.5842 12.3382 46.0157 14.32C47.0894 15.8064 47.9828 17.4731 48.696 19.32H41.72C40.4827 16.632 38.6907 14.5627 36.344 13.112C34.04 11.6613 31.2667 10.936 28.024 10.936C24.9093 10.936 22.1147 11.6613 19.64 13.112C17.1653 14.5627 15.224 16.632 13.816 19.32ZM4.34159 14.4945C1.91609 18.7704 0.751999 23.5355 0.751999 28.664C0.751999 33.7972 1.9182 38.5662 4.34819 42.8451C6.73847 47.0541 10.0308 50.4089 14.18 52.8249L14.2122 52.8436L14.2447 52.8619C18.4493 55.2269 23.0772 56.384 28.024 56.384C33.7087 56.384 38.9107 55.0265 43.4412 52.1483L43.4588 52.1372L43.4763 52.1258C47.3586 49.6137 50.3228 46.2222 52.3655 42.074V56H68.1895V41.3592L74.7311 56H85.315L91.7895 41.4747V56H107.614V1.71199H93.1653L80.0215 31.0803L66.8777 1.71199H52.3655V15.2362C50.3263 11.0642 47.3647 7.65421 43.4763 5.13814C38.9413 2.20376 33.7265 0.815994 28.024 0.815994C23.0571 0.815994 18.4146 2.00418 14.2036 4.42546L14.1918 4.43226L14.18 4.43912C10.0191 6.86192 6.72732 10.246 4.34159 14.4945ZM52.3655 24.32H38.5173L37.1781 21.4107C36.3206 19.5479 35.1638 18.2606 33.7149 17.365L33.6974 17.3541L33.6799 17.3432C32.315 16.4837 30.506 15.936 28.024 15.936C25.7195 15.936 23.8112 16.4626 22.1686 17.4255C20.5491 18.3749 19.245 19.7312 18.2452 21.64L18.2375 21.6547L18.2297 21.6692C17.2753 23.4623 16.704 25.7395 16.704 28.664C16.704 31.525 17.2673 33.8147 18.2375 35.6734C19.2303 37.5329 20.5327 38.8796 22.1686 39.8385C23.8112 40.8014 25.7195 41.328 28.024 41.328C30.5262 41.328 32.3532 40.7921 33.7262 39.956C35.1698 39.0606 36.3228 37.7752 37.1781 35.9173L38.5173 33.008H52.3655V24.32ZM63.6375 6.71199H57.3655V51H63.1895V17.912L77.9735 51H82.0695L96.7895 17.976V51H102.614V6.71199H96.4055L80.0215 43.32L63.6375 6.71199Z" fill="#FFFDFD"/>
          </svg>